HIERARCHY
ROOT Hip
{
    OFFSET 0.0 0.0 0.0
    CHANNELS 6 Xposition Yposition Zposition Zrotation Xrotation Yrotation
    JOINT RightHip
    {
        OFFSET -13.521650314331055 0.0 0.0
        CHANNELS 3 Zrotation Xrotation Yrotation
        JOINT RightKnee
        {
            OFFSET 0.0 0.0 -48.099876403808594
            CHANNELS 3 Zrotation Xrotation Yrotation
            JOINT RightAnkle
            {
                OFFSET 0.0 0.0 -45.817779541015625
                CHANNELS 3 Zrotation Xrotation Yrotation
                End Site
                {
                    OFFSET 0.0 -18.327112197875977 0.0
                }
            }
        }
    }
    JOINT LeftHip
    {
        OFFSET 13.521650314331055 0.0 0.0
        CHANNELS 3 Zrotation Xrotation Yrotation
        JOINT LeftKnee
        {
            OFFSET 0.0 0.0 -48.099876403808594
            CHANNELS 3 Zrotation Xrotation Yrotation
            JOINT LeftAnkle
            {
                OFFSET 0.0 0.0 -45.817779541015625
                CHANNELS 3 Zrotation Xrotation Yrotation
                End Site
                {
                    OFFSET 0.0 -18.327112197875977 0.0
                }
            }
        }
    }
    JOINT Spine
    {
        OFFSET 0.0 0.0 24.278772354125977
        CHANNELS 3 Zrotation Xrotation Yrotation
        JOINT Thorax
        {
            OFFSET 0.0 0.0 24.261747360229492
            CHANNELS 3 Zrotation Xrotation Yrotation
            JOINT Neck
            {
                OFFSET 0.0 0.0 11.935837745666504
                CHANNELS 3 Zrotation Xrotation Yrotation
                End Site
                {
                    OFFSET 0.0 0.0 4.7743353843688965
                }
            }
            JOINT LeftShoulder
            {
                OFFSET 15.132634162902832 0.0 0.0
                CHANNELS 3 Zrotation Xrotation Yrotation
                JOINT LeftElbow
                {
                    OFFSET 27.791358947753906 0.0 0.0
                    CHANNELS 3 Zrotation Xrotation Yrotation
                    JOINT LeftWrist
                    {
                        OFFSET 23.395803451538086 0.0 0.0
                        CHANNELS 3 Zrotation Xrotation Yrotation
                        End Site
                        {
                            OFFSET 9.358321189880371 0.0 0.0
                        }
                    }
                }
            }
            JOINT RightShoulder
            {
                OFFSET -15.132634162902832 0.0 0.0
                CHANNELS 3 Zrotation Xrotation Yrotation
                JOINT RightElbow
                {
                    OFFSET -27.791358947753906 0.0 0.0
                    CHANNELS 3 Zrotation Xrotation Yrotation
                    JOINT RightWrist
                    {
                        OFFSET -23.395803451538086 0.0 0.0
                        CHANNELS 3 Zrotation Xrotation Yrotation
                        End Site
                        {
                            OFFSET -9.358321189880371 0.0 0.0
                        }
                    }
                }
            }
        }
    }
}
MOTION
Frames: 15
Frame Time: 0.03333333333333333
131.01818836067025 95.14883610022713 90.97332807552826 -109.12485394 -77.20641749 -132.93360522 1.17749914 -4.68414384 14.96118212 0.08348021 8.88687996 16.56901165 0.0 0.0 0.0 0.70085268 -3.10662568 11.239673 -0.54600889 13.22714795 28.48329959 0.0 0.0 0.0 -2.55509672 10.12695263 -16.55050415 -5.22524812 -1.1e-06 -1.81e-06 -45.59841787 -0.16516835 8.58941022 4.4275435 3.71784172 59.62952269 -64.86733756 -1.04e-06 1.21e-06 0.0 0.0 0.0 -40.04094592 -38.41816531 -54.26759081 53.01386608 -2.1e-07 -2.9e-07 0.0 0.0 0.0
133.66246462309846 95.18705578829014 83.05312426904581 -99.22422973 -75.23242562 -123.12683163 1.50901592 -5.92809284 15.69180621 0.20681851 7.72950639 14.12390766 0.0 0.0 0.0 0.89773147 -3.79685514 10.93493887 -0.61471296 12.28115759 27.7219876 0.0 0.0 0.0 -2.85989503 11.20136935 -17.3762934 -3.10722831 -1.29e-06 -1.49e-06 -45.0948245 -0.47884006 7.76661579 0.89329658 4.8191405 60.88181069 -65.73459372 -9.7e-07 1.26e-06 0.0 0.0 0.0 -37.30640308 -37.79925153 -53.30167655 47.13190121 -3.3e-07 -1.2e-07 0.0 0.0 0.0
136.2964765636343 95.22812866247516 75.25008092658706 -92.00712351 -73.11268128 -115.95964974 1.86276568 -7.25923811 16.20813807 0.28370356 7.00709126 11.8515336 0.0 0.0 0.0 1.07622534 -4.41829291 10.70532966 -0.65254352 11.41655563 26.52079146 0.0 0.0 0.0 -3.17392626 12.33633691 -18.14339671 -1.11997538 -1.66e-06 -1.14e-06 -43.89372331 -0.84265117 6.94662552 -2.09864395 5.62760089 62.21863511 -67.35787219 -7.9e-07 1.37e-06 0.0 0.0 0.0 -34.5163155 -37.39506816 -52.23677171 41.81175072 -3e-07 5e-08 0.0 0.0 0.0
138.98362919435445 95.26620159070859 67.50726067496704 -86.47270442 -71.08242102 -110.53979414 2.23062339 -8.6072896 16.69049175 0.33386493 6.5853567 9.77319098 0.0 0.0 0.0 1.24158744 -4.97580309 10.58345447 -0.66849863 10.57002522 25.03555368 0.0 0.0 0.0 -3.46545302 13.33735987 -18.77868678 0.73567927 -1.63e-06 -7e-07 -42.4333627 -1.47725267 6.12413002 -4.84749725 6.39678432 63.57916463 -69.32570691 -4.7e-07 1.73e-06 0.0 0.0 0.0 -32.04755895 -37.23546804 -51.24669437 37.15894129 -4.5e-07 8e-08 0.0 0.0 0.0
141.58915206896486 95.3026070342767 60.09204146265767 -82.01950864 -69.25317415 -106.31505463 2.61253582 -9.99179774 17.25168499 0.38134628 6.39950585 7.9201345 0.0 0.0 0.0 1.40964992 -5.5477599 10.62200033 -0.65505576 9.82239098 23.3126373 0.0 0.0 0.0 -3.70609838 14.12794805 -19.29104154 2.42930249 -1.62e-06 1.1e-07 -40.85529401 -2.50513692 5.33244917 -7.77150598 7.28073688 64.97356092 -71.33383388 -2.4e-07 1.82e-06 0.0 0.0 0.0 -29.64821239 -37.20347954 -50.14500856 33.36849436 -3.4e-07 1.8e-07 0.0 0.0 0.0
144.0567570813577 95.33651985508206 53.29505836078062 -78.36764311 -67.67303369 -102.97176878 2.98713044 -11.34805294 17.86688277 0.43187895 6.39767851 6.31160781 0.0 0.0 0.0 1.5830985 -6.15580724 10.77747209 -0.62463162 9.25219794 21.47074015 0.0 0.0 0.0 -3.90131895 14.7528081 -19.68874759 3.90744657 -1.38e-06 9.1e-07 -39.29265685 -3.81891674 4.61251442 -10.93068881 8.21961725 66.44192134 -73.24103625 -6e-08 1.56e-06 0.0 0.0 0.0 -27.19537943 -37.10990927 -48.88247473 30.59531287 -2.9e-07 1.7e-07 0.0 0.0 0.0
146.21027123032988 95.3660791527576 47.269193484171474 -75.37503693 -66.3348586 -100.29290378 3.32334822 -12.61050986 18.40651294 0.47987874 6.49164501 5.02024297 0.0 0.0 0.0 1.75348042 -6.7932592 10.95217845 -0.58759587 8.87100529 19.59950744 0.0 0.0 0.0 -4.05264369 15.27933873 -19.984234 5.1506273 -1.27e-06 1.23e-06 -37.93701991 -5.20443474 3.93751552 -14.10866263 9.03295906 67.98463351 -75.02909771 2.4e-07 1.72e-06 0.0 0.0 0.0 -24.79680713 -36.90546809 -47.56137344 28.78597459 -2.8e-07 8e-08 0.0 0.0 0.0
148.03663618323435 95.38688806468868 42.152104726368016 -72.93115536 -65.22169951 -98.08083457 3.59181214 -13.75857556 18.74888142 0.52305747 6.62986916 4.06546004 0.0 0.0 0.0 1.90228538 -7.43461576 11.03189204 -0.55155974 8.70700581 17.79737996 0.0 0.0 0.0 -4.14076573 15.73345684 -20.2542468 6.15371273 -1.09e-06 1.41e-06 -36.93559741 -6.53023514 3.33215231 -17.08776349 9.56529515 69.53156625 -76.64387965 5e-07 1.72e-06 0.0 0.0 0.0 -22.62575945 -36.69087144 -46.30869896 27.71416324 -2.5e-07 -7e-08 0.0 0.0 0.0
149.57045532238595 95.39846386307683 38.10224782062966 -70.91910076 -64.3521584 -96.19368937 3.78350044 -14.75823884 18.85941608 0.55489058 6.76135525 3.42407756 0.0 0.0 0.0 2.02090303 -8.04615036 10.99173982 -0.52264262 8.74643286 16.10978986 0.0 0.0 0.0 -4.16594277 16.104735 -20.52513929 6.91113325 -9.3e-07 1.6e-06 -36.23409331 -7.72312156 2.81997199 -19.69381701 9.73465161 71.00823374 -77.98733547 5.4e-07 1.36e-06 0.0 0.0 0.0 -21.00836394 -36.60676096 -45.34428908 27.20432515 -2.3e-07 -1.7e-07 0.0 0.0 0.0
150.83693854520953 95.40174533683258 35.087884969347535 -69.25631441 -63.72473956 -94.56573993 3.90014699 -15.58404022 18.79433983 0.57342681 6.81750424 3.03846888 0.0 0.0 0.0 2.10753381 -8.60285076 10.84934397 -0.50217802 8.94185867 14.60525996 0.0 0.0 0.0 -4.13802376 16.38586755 -20.7834895 7.41632143 -7.8e-07 1.6e-06 -35.88963194 -8.72405035 2.4256192 -21.86923455 9.56314453 72.33061068 -79.11163711 5.4e-07 9.8e-07 0.0 0.0 0.0 -19.92708131 -36.62991491 -44.62623108 27.12070209 -2.9e-07 -1e-07 0.0 0.0 0.0
151.8490504287175 95.39603481552719 33.17374119557927 -67.96830744 -63.30654716 -93.20861213 3.94412627 -16.25525323 18.58063898 0.58342724 6.79995611 2.84446748 -0.0 -0.0 -0.0 2.15804169 -9.09327285 10.59443877 -0.48804641 9.23439797 13.34075656 -0.0 -0.0 -0.0 -4.05699737 16.58325222 -21.03849479 7.64229699 -3.5e-07 1.56e-06 -35.8072312 -9.45112695 2.14437705 -23.58061489 9.11470961 73.46895567 -80.07928239 5.4e-07 6.1e-07 -0.0 -0.0 -0.0 -19.36483921 -36.76760027 -44.15483956 27.37384507 -3.6e-07 -2.1e-07 -0.0 -0.0 -0.0
152.59815213954175 95.38309519190794 32.28352681808661 -67.05937714 -63.09118833 -92.15799667 3.93177063 -16.76517813 18.30795122 0.58855275 6.71078715 2.82835177 0.0 0.0 0.0 2.17841429 -9.50052861 10.29323253 -0.47294899 9.49871273 12.31812584 0.0 0.0 0.0 -3.93116819 16.65536944 -21.25489212 7.56637207 6e-08 1.36e-06 -35.80770173 -9.88404129 1.99399864 -24.95159266 8.56139491 74.40118658 -80.930099 4.9e-07 2.9e-07 0.0 0.0 0.0 -19.28892638 -36.97478041 -43.92914757 27.85639804 -2.9e-07 -5.4e-07 0.0 0.0 0.0
153.0486183994074 95.36577380961879 32.34468152856031 -66.53514689 -63.05934309 -91.44309369 3.87536332 -17.08403215 18.00524453 0.58400178 6.5419923 2.98704165 -0.0 -0.0 -0.0 2.1735401 -9.79750909 10.00143537 -0.45631641 9.70400436 11.46595488 -0.0 -0.0 -0.0 -3.77797301 16.59233698 -21.42505562 7.19180876 4.7e-07 1.25e-06 -35.6577539 -10.09732366 2.00496215 -26.151013 8.01566364 75.14818437 -81.70998419 5.4e-07 3.2e-07 -0.0 -0.0 -0.0 -19.57573072 -37.13011185 -43.89899121 28.59034188 6e-08 -8.8e-07 -0.0 -0.0 -0.0
153.17132943949005 95.34697540429245 33.32400729143241 -66.39345924 -63.10600244 -91.11745178 3.80369785 -17.23804294 17.74238644 0.57142637 6.31654676 3.28915639 0.0 0.0 0.0 2.15493012 -9.97765919 9.79439843 -0.43551365 9.82766626 10.73265054 0.0 0.0 0.0 -3.63290491 16.45206979 -21.46437535 6.5906979 7.6e-07 1.09e-06 -35.17943738 -10.16837795 2.22092899 -27.2380593 7.54690673 75.74343531 -82.32299608 4.5e-07 2.8e-07 0.0 0.0 0.0 -19.91952516 -37.02901935 -43.91480972 29.61079569 3.7e-07 -1.07e-06 0.0 0.0 0.0
153.00676121492435 95.32912770893313 35.15832953731319 -66.65895064 -63.1482294 -91.19425092 3.71561898 -17.25746896 17.49797561 0.55344992 6.05466337 3.6957708 -0.0 -0.0 -0.0 2.11808611 -10.04011468 9.6715257 -0.40586376 9.88132775 10.06406953 -0.0 -0.0 -0.0 -3.49885611 16.28667387 -21.36778874 5.78446259 8.3e-07 1.04e-06 -34.33110296 -10.13087049 2.6328793 -28.18970437 7.09785194 76.23668071 -82.6820503 3.9e-07 1e-08 -0.0 -0.0 -0.0 -19.99552398 -36.50113667 -43.79885556 30.99794955 5.7e-07 -1.06e-06 -0.0 -0.0 -0.0
